<svg width="19" height="14" viewBox="0 0 19 14" fill="none" xmlns="http://www.w3.org/2000/svg">
<path fill-rule="evenodd" clip-rule="evenodd" d="M0.999939 0C0.447654 0 -6.10352e-05 0.447715 -6.10352e-05 1V6.53846V12.0769C-6.10352e-05 12.6292 0.447654 13.0769 0.999939 13.0769H5.15379C6.15345 13.0769 7.11217 12.6798 7.81903 11.9729C8.5259 11.2661 8.92302 10.3074 8.92302 9.30769C8.92302 8.30803 8.5259 7.34931 7.81903 6.64244C7.78359 6.607 7.74751 6.57234 7.71083 6.53846C7.74751 6.50459 7.78359 6.46992 7.81903 6.43448C8.5259 5.72761 8.92302 4.76889 8.92302 3.76923C8.92302 2.76957 8.5259 1.81085 7.81903 1.10398C7.11217 0.397114 6.15345 0 5.15379 0H0.999939ZM1.99994 7.53846V11.0769H5.15379C5.62301 11.0769 6.07303 10.8905 6.40482 10.5587C6.73662 10.2269 6.92302 9.77692 6.92302 9.30769C6.92302 8.83846 6.73662 8.38845 6.40482 8.05666C6.07303 7.72486 5.62301 7.53846 5.15379 7.53846L5.1528 7.53846H1.99994ZM5.15379 5.53846L1.99994 5.53846V2H5.15379C5.62301 2 6.07303 2.1864 6.40482 2.5182C6.73662 2.84999 6.92302 3.3 6.92302 3.76923C6.92302 4.23846 6.73662 4.68847 6.40482 5.02027C6.07321 5.35188 5.62352 5.53825 5.15457 5.53846H5.15379ZM11.393 4.46993C12.1864 3.6765 13.2625 3.23076 14.3846 3.23076C15.5067 3.23076 16.5828 3.6765 17.3762 4.46993C18.1696 5.26335 18.6154 6.33946 18.6154 7.46153C18.6154 8.01382 18.1677 8.46153 17.6154 8.46153H12.1538V9.23276C12.2293 9.68641 12.4433 10.1062 12.7671 10.4342C13.1056 10.7769 13.5459 11.0009 14.0222 11.0726C14.4985 11.1443 14.9852 11.06 15.4096 10.8321C15.834 10.6043 16.1732 10.2452 16.3766 9.80856C16.6097 9.30791 17.2046 9.09109 17.7053 9.32426C18.2059 9.55744 18.4228 10.1523 18.1896 10.653C17.8039 11.4811 17.1605 12.1621 16.3556 12.5942C15.5508 13.0264 14.6277 13.1864 13.7243 13.0503C12.821 12.9143 11.9859 12.4895 11.344 11.8395C10.7021 11.1895 10.2879 10.3492 10.1632 9.44417C10.157 9.39894 10.1538 9.35334 10.1538 9.30769V7.46153C10.1538 6.33946 10.5996 5.26335 11.393 4.46993ZM12.3905 6.46153H16.3787C16.2726 6.24994 16.1325 6.05466 15.962 5.88414C15.5437 5.46579 14.9762 5.23076 14.3846 5.23076C13.793 5.23076 13.2256 5.46579 12.8072 5.88414C12.6367 6.05466 12.4966 6.24994 12.3905 6.46153ZM12.9999 0C12.4476 0 11.9999 0.447715 11.9999 1C11.9999 1.55228 12.4476 2 12.9999 2H15.7691C16.3214 2 16.7691 1.55228 16.7691 1C16.7691 0.447715 16.3214 0 15.7691 0H12.9999Z" fill="url(#paint0_linear_84_105)"/>
<defs>
<linearGradient id="paint0_linear_84_105" x1="16.77" y1="-0.00134547" x2="6.06811" y2="16.8955" gradientUnits="userSpaceOnUse">
<stop offset="0.367491" stop-color="#FAE8BC"/>
<stop offset="1" stop-color="#FEBAA5"/>
</linearGradient>
</defs>
</svg>
