<svg width="19" height="19" viewBox="0 0 19 19" fill="none" xmlns="http://www.w3.org/2000/svg">
<path fill-rule="evenodd" clip-rule="evenodd" d="M9.02041 3.03279C9.33078 2.99072 9.64761 2.96899 9.96952 2.96899C11.5352 2.96899 12.9809 3.48302 14.1469 4.35151C13.1611 5.09757 12.2019 5.68614 11.2593 6.15016C10.6128 5.1427 9.87001 4.11038 9.02041 3.03279ZM9.37902 6.92668C8.69185 5.88332 7.88848 4.80031 6.95269 3.65061C5.2225 4.47816 3.88524 5.99542 3.29686 7.84643C5.34783 7.80257 7.33942 7.61371 9.37902 6.92668ZM2.97013 9.85238C5.41358 9.81847 7.87467 9.61324 10.4415 8.67306C10.7619 9.24901 11.0474 9.81703 11.3008 10.3822C10.5679 10.6322 9.90235 10.9309 9.28519 11.2722C7.53647 12.2391 6.22505 13.5295 4.93315 14.8314C3.71719 13.5722 2.96918 11.8581 2.96918 9.96933C2.96918 9.93027 2.9695 9.89129 2.97013 9.85238ZM12.2845 7.87378C13.3583 7.33319 14.4533 6.64692 15.5757 5.77627C16.3645 6.82929 16.8636 8.1119 16.9548 9.50585C15.5636 9.53206 14.3445 9.65642 13.259 9.86669C12.9735 9.20417 12.6497 8.54198 12.2845 7.87378ZM13.9743 11.7692C14.8042 11.6277 15.7375 11.5376 16.7998 11.5098C16.4873 12.9015 15.7603 14.1364 14.7553 15.0783C14.5771 13.9409 14.3213 12.8467 13.9743 11.7692ZM10.253 13.0224C8.82824 13.8102 7.75033 14.8398 6.52714 16.0662C7.54363 16.6414 8.71824 16.9697 9.96952 16.9697C11.0183 16.9697 12.0132 16.739 12.9063 16.3257C12.744 14.9083 12.4639 13.5708 12.0268 12.2481C11.3645 12.4685 10.7815 12.7301 10.253 13.0224ZM14.3936 17.8091C13.0871 18.548 11.5776 18.9697 9.96952 18.9697C4.99877 18.9697 0.969177 14.9401 0.969177 9.96933C0.969177 4.99858 4.99877 0.968994 9.96952 0.968994C14.9403 0.968994 18.9699 4.99858 18.9699 9.96933C18.9699 13.2708 17.1923 16.1571 14.542 17.7233C14.4954 17.7559 14.4458 17.7847 14.3936 17.8091Z" fill="url(#paint0_linear_84_99)"/>
<defs>
<linearGradient id="paint0_linear_84_99" x1="17.1855" y1="0.967145" x2="1.0059" y2="18.9403" gradientUnits="userSpaceOnUse">
<stop offset="0.367491" stop-color="#FAE8BC"/>
<stop offset="1" stop-color="#FEBAA5"/>
</linearGradient>
</defs>
</svg>
