<svg width="18" height="18" viewBox="0 0 18 18" fill="none" xmlns="http://www.w3.org/2000/svg">
<path fill-rule="evenodd" clip-rule="evenodd" d="M5.00872 2.01733C3.35666 2.01733 2.0174 3.3566 2.0174 5.00866V12.9913C2.0174 14.6434 3.35666 15.9826 5.00872 15.9826H12.9914C14.6434 15.9826 15.9827 14.6434 15.9827 12.9913V5.00866C15.9827 3.3566 14.6434 2.01733 12.9914 2.01733H5.00872ZM0.017395 5.00866C0.017395 2.25203 2.25209 0.017334 5.00872 0.017334H12.9914C15.748 0.017334 17.9827 2.25203 17.9827 5.00866V12.9913C17.9827 15.7479 15.748 17.9826 12.9914 17.9826H5.00872C2.25209 17.9826 0.017395 15.7479 0.017395 12.9913V5.00866ZM9.00003 7.00648C7.89905 7.00648 7.00654 7.89899 7.00654 8.99997C7.00654 10.1009 7.89905 10.9935 9.00003 10.9935C10.101 10.9935 10.9935 10.1009 10.9935 8.99997C10.9935 7.89899 10.101 7.00648 9.00003 7.00648ZM5.00654 8.99997C5.00654 6.79442 6.79449 5.00648 9.00003 5.00648C11.2056 5.00648 12.9935 6.79442 12.9935 8.99997C12.9935 11.2055 11.2056 12.9935 9.00003 12.9935C6.79449 12.9935 5.00654 11.2055 5.00654 8.99997ZM14.4906 4.50976C14.4906 3.95747 14.0429 3.50976 13.4906 3.50976C12.9383 3.50976 12.4906 3.95747 12.4906 4.50976V4.51076C12.4906 5.06304 12.9383 5.51076 13.4906 5.51076C14.0429 5.51076 14.4906 5.06304 14.4906 4.51076V4.50976Z" fill="url(#paint0_linear_84_113)"/>
<defs>
<linearGradient id="paint0_linear_84_113" x1="16.2018" y1="0.0154885" x2="0.0540498" y2="17.9533" gradientUnits="userSpaceOnUse">
<stop offset="0.367491" stop-color="#FAE8BC"/>
<stop offset="1" stop-color="#FEBAA5"/>
</linearGradient>
</defs>
</svg>
